<svg xmlns="http://www.w3.org/2000/svg" xmlns:xlink="http://www.w3.org/1999/xlink" width="300" height="232" viewBox="0 0 300 232"><defs><style>.cls-1,.cls-13,.cls-26,.cls-9{fill:none;}.cls-2{isolation:isolate;}.cls-3{fill:#e9ebfb;}.cls-4{clip-path:url(#clip-path);}.cls-5{fill:#e0e2f5;}.cls-6{fill:#81b7fb;}.cls-7{fill:#4d8bd7;}.cls-8{fill:#ebedfd;}.cls-9{stroke:#e9ebfb;stroke-linecap:round;stroke-linejoin:round;stroke-width:0.99px;}.cls-10{fill:#fff;}.cls-11{fill:#4545d2;}.cls-12{fill:#c8cdeb;}.cls-13{stroke:#8794ca;stroke-width:1.04px;}.cls-13,.cls-26{stroke-miterlimit:10;}.cls-14{fill:#bdc2e0;}.cls-15{fill:#5399d9;}.cls-16{fill:#e2e4f7;}.cls-17{fill:#83b9fd;}.cls-18{fill:#6138fd;}.cls-19{fill:#8592c8;}.cls-20{fill:#8a5d45;}.cls-21{fill:#204d37;opacity:0.13;mix-blend-mode:multiply;}.cls-22{fill:#0b070b;}.cls-23{fill:#45c6ed;}.cls-24{fill:#f5b73b;}.cls-25{fill:#78e0ff;}.cls-26{stroke:#0b070b;stroke-width:0.5px;}.cls-27{fill:#855040;}.cls-28{fill:#353a4d;}</style><clipPath id="clip-path"><path class="cls-1" d="M216.1,113.34a17,17,0,0,0,3.39,22.09c2.5,2.1,5.52,4.48,9.13,7.1,9.53,6.94,28.56,16.63,6.2,43.95-26.24,32.05-97.76,16.42-147.53,7C9.81,178.79,10.41,112.52,54.4,104.19c35.22-6.68,55.94-6.23,66.11-27.47C143.69,28.31,257.88,47.72,216.1,113.34Z"/></clipPath></defs><title>onlinestore</title><g class="cls-2"><g id="Layer_1" data-name="Layer 1"><path class="cls-3" d="M216.1,113.34a17,17,0,0,0,3.39,22.09c2.5,2.1,5.52,4.48,9.13,7.1,9.53,6.94,28.56,16.63,6.2,43.95-26.24,32.05-97.76,16.42-147.53,7C9.81,178.79,10.41,112.52,54.4,104.19c35.22-6.68,55.94-6.23,66.11-27.47C143.69,28.31,257.88,47.72,216.1,113.34Z"/><g class="cls-4"><path class="cls-5" d="M235.43,123.18c55.9,40.24-62.84,59.65-80.06-12.46s-132.87-9.6-132.87-9.6L97.73,34.46H228.16Z"/></g><path class="cls-6" d="M53.5,164.66c-.43.08-11.55.05-13.25-10.09s5-13.49,1.83-24.62-8.38-13.83,1.46-23.39c0,0,4.43-3.9,4.11-8.6-.39-5.64,8.52-13.27,15.44-10.3s6.08,8.93,1.62,18.92,1.09,11,2.51,13.9,4.27,5.77-.55,13.65,3,15.91-1,23.39C65.62,157.52,62,163.13,53.5,164.66Z"/><path class="cls-7" d="M57.05,180.09a.47.47,0,0,0,.27-.58c-9.54-30.43-2.51-74.28-2.44-74.72a.47.47,0,1,0-.92-.15c-.07.44-7.13,44.51,2.47,75.15a.48.48,0,0,0,.59.31Z"/><path class="cls-7" d="M52.72,121.93l.07,0a.47.47,0,0,0,.16-.64,63.65,63.65,0,0,1-4.68-9.85.47.47,0,0,0-.59-.29.46.46,0,0,0-.29.59,63.51,63.51,0,0,0,4.76,10A.47.47,0,0,0,52.72,121.93Z"/><path class="cls-7" d="M52.24,131.53a.45.45,0,0,0,.17-.11c2.1-2.2,7.53-6.51,7.58-6.55a.47.47,0,1,0-.58-.73c-.22.17-5.53,4.39-7.68,6.64a.46.46,0,0,0,0,.65A.45.45,0,0,0,52.24,131.53Z"/><path class="cls-7" d="M52,140.85l.09,0a.48.48,0,0,0,.13-.65l-4-6.06a.45.45,0,0,0-.64-.13.46.46,0,0,0-.14.64l4,6.07A.47.47,0,0,0,52,140.85Z"/><path class="cls-8" d="M66.11,74.07s-2-2.58-3.17-3.77c-2.17-2.13-4.66-5.89-12.62-3.12a19.09,19.09,0,0,0-1.81.79c-.7.34-2.87.35-5.1-1.67-3.53-3.2-4.92-5.62-9.76-5.7-5.64-.09-6.52,7.94-10.91,10C20,71.9,12.6,73.2,11.08,73.78Z"/><path class="cls-9" d="M206.26,22.88a27.6,27.6,0,0,0-2-2.12c-1.39-1.2-3-3.32-8.1-1.75-.39.12-.78.28-1.16.44a3.75,3.75,0,0,1-3.28-.94c-2.27-1.8-3.16-3.16-6.27-3.21-3.62,0-4.19,4.47-7,5.62-1.79.74-6.51,1.47-7.49,1.8Z"/><path class="cls-8" d="M226.08,61.46a24.11,24.11,0,0,1,1.81-1.88c1.23-1.06,2.65-2.93,7.17-1.55a10.46,10.46,0,0,1,1,.39,3.32,3.32,0,0,0,2.91-.83c2-1.6,2.79-2.8,5.55-2.84,3.21,0,3.71,4,6.21,5,1.58.65,5.77,1.3,6.63,1.59Z"/><path class="cls-10" d="M196.85,74.22l-.35-1-.35,1a3.47,3.47,0,0,1-1.94,2h0a3.47,3.47,0,0,1,1.94,2l.35,1,.35-1a3.48,3.48,0,0,1,1.93-2h0A3.48,3.48,0,0,1,196.85,74.22Z"/><path class="cls-10" d="M217.2,157.84l-.35-1-.35,1a3.48,3.48,0,0,1-1.93,2h0a3.48,3.48,0,0,1,1.93,2l.35,1,.35-1a3.48,3.48,0,0,1,1.93-2h0A3.48,3.48,0,0,1,217.2,157.84Z"/><path class="cls-10" d="M80.1,113.23l-.59-1.67-.58,1.67a5.82,5.82,0,0,1-3.25,3.31h0a5.81,5.81,0,0,1,3.25,3.3l.58,1.68.59-1.68a5.82,5.82,0,0,1,3.24-3.3h0A5.84,5.84,0,0,1,80.1,113.23Z"/><path class="cls-11" d="M71.67,44a11,11,0,0,0-8.48-18.06H55.48a11,11,0,1,0,0,22.06h7.71a10.85,10.85,0,0,0,4.92-1.18l5.53,3Z"/><path class="cls-10" d="M66.74,35.79a.91.91,0,0,0-.91-.84H61.42a21.3,21.3,0,0,0,.17-2.22c-.06-.35-.85-2.3-.85-2.3a.62.62,0,0,0-.67-.22c-.45.11-.5.4-.5.4l.09,2.06a12.81,12.81,0,0,1-1.93,3.16l-.56.42V41l.21.29a1.16,1.16,0,0,0,.95.49h6.25a.88.88,0,0,0,.34-1.7H65a.89.89,0,0,0,.9-.84.87.87,0,0,0-.53-.85h0a.88.88,0,0,0,.39-1.67h.09A.89.89,0,0,0,66.74,35.79Z"/><path class="cls-10" d="M55.6,34.79H52.71a.78.78,0,0,0-.78.78v5.78a.78.78,0,0,0,.78.78H55.6a.78.78,0,0,0,.77-.78V35.57A.77.77,0,0,0,55.6,34.79Z"/><rect class="cls-12" x="90.05" y="34.46" width="73.41" height="145.24" rx="7.69"/><rect class="cls-10" x="95.24" y="38.81" width="62.77" height="121" rx="6.49"/><path class="cls-13" d="M132.5,170.15a5.75,5.75,0,1,1-5.75-5.75A5.74,5.74,0,0,1,132.5,170.15Z"/><path class="cls-14" d="M159.41,40.54H93.84a1.94,1.94,0,0,1,1.93-1.93h61.72a1.93,1.93,0,0,1,1.92,1.93Z"/><path class="cls-14" d="M79,58.41H89.57a0,0,0,0,1,0,0v3.05a4.21,4.21,0,0,1-4.21,4.21h-2.1A4.21,4.21,0,0,1,79,61.46V58.41A0,0,0,0,1,79,58.41Z"/><path class="cls-15" d="M89.57,58.41h11.34a0,0,0,0,1,0,0v3.05a4.21,4.21,0,0,1-4.21,4.21H93.78a4.21,4.21,0,0,1-4.21-4.21V58.41A0,0,0,0,1,89.57,58.41Z"/><path class="cls-14" d="M107.3,65.67h-2.18a4.22,4.22,0,0,1-4.21-4.21V58.41h10.6v3.05A4.21,4.21,0,0,1,107.3,65.67Z"/><path class="cls-15" d="M111.51,58.41h10a0,0,0,0,1,0,0v3.05a4.21,4.21,0,0,1-4.21,4.21h-1.61a4.21,4.21,0,0,1-4.21-4.21V58.41A0,0,0,0,1,111.51,58.41Z"/><polygon class="cls-16" points="93.84 40.54 79.05 58.41 126.63 58.41 126.63 40.54 93.84 40.54"/><polygon class="cls-17" points="100.24 40.54 89.57 58.41 126.63 58.41 126.63 40.54 100.24 40.54"/><polygon class="cls-16" points="107.92 40.54 100.91 58.41 126.63 58.41 126.63 40.54 107.92 40.54"/><polygon class="cls-17" points="115.11 40.54 111.51 58.41 126.63 58.41 126.63 40.54 115.11 40.54"/><path class="cls-14" d="M121.55,58.41v3.72c0,2,2.25,3.54,5,3.54h.11c2.78,0,5-1.58,5-3.54V58.41Z"/><path class="cls-14" d="M167.89,65.67H170a4.21,4.21,0,0,0,4.21-4.21V58.41H163.68v3.05A4.22,4.22,0,0,0,167.89,65.67Z"/><path class="cls-15" d="M156.55,58.41h2.92a4.21,4.21,0,0,1,4.21,4.21v3.05a0,0,0,0,1,0,0H152.34a0,0,0,0,1,0,0V62.62A4.21,4.21,0,0,1,156.55,58.41Z" transform="translate(316.03 124.07) rotate(-180)"/><path class="cls-14" d="M146,65.67h2.18a4.21,4.21,0,0,0,4.21-4.21V58.41h-10.6v3.05A4.22,4.22,0,0,0,146,65.67Z"/><path class="cls-15" d="M135.91,58.41h1.61a4.21,4.21,0,0,1,4.21,4.21v3.05a0,0,0,0,1,0,0h-10a0,0,0,0,1,0,0V62.62A4.21,4.21,0,0,1,135.91,58.41Z" transform="translate(273.44 124.07) rotate(180)"/><polygon class="cls-16" points="159.41 40.54 126.63 40.54 126.63 58.41 174.2 58.41 159.41 40.54"/><polygon class="cls-17" points="153.02 40.54 126.63 40.54 126.63 58.41 163.68 58.41 153.02 40.54"/><polygon class="cls-16" points="126.63 40.54 126.63 58.41 152.34 58.41 145.33 40.54 126.63 40.54"/><polygon class="cls-17" points="126.63 40.54 126.63 58.41 141.74 58.41 138.15 40.54 126.63 40.54"/><polygon class="cls-16" points="123 40.54 121.55 58.41 131.7 58.41 130.25 40.54 123 40.54"/><rect class="cls-15" x="100.24" y="38.61" width="7.63" height="1.93"/><rect class="cls-15" x="145.33" y="38.61" width="7.68" height="1.93"/><rect class="cls-15" x="115.11" y="38.61" width="7.9" height="1.93"/><rect class="cls-15" x="130.25" y="38.61" width="7.9" height="1.93"/><rect class="cls-8" x="103.63" y="105.65" width="45.36" height="39.08" rx="4.32"/><rect class="cls-8" x="103.63" y="78.45" width="45.36" height="18.32" rx="4.32"/><path class="cls-18" d="M135.18,114.38H111.47a.82.82,0,0,1-.82-.82h0a.83.83,0,0,1,.82-.83h23.71a.83.83,0,0,1,.83.83h0A.83.83,0,0,1,135.18,114.38Z"/><path class="cls-18" d="M127.4,119.62H111.47a.82.82,0,0,1-.82-.82h0a.83.83,0,0,1,.82-.83H127.4a.82.82,0,0,1,.82.83h0A.82.82,0,0,1,127.4,119.62Z"/><polygon class="cls-18" points="113.04 123.18 113.78 124.68 115.43 124.92 114.24 126.08 114.52 127.73 113.04 126.95 111.56 127.73 111.85 126.08 110.65 124.92 112.3 124.68 113.04 123.18"/><polygon class="cls-18" points="119.68 123.18 120.42 124.68 122.07 124.92 120.87 126.08 121.16 127.73 119.68 126.95 118.2 127.73 118.48 126.08 117.29 124.92 118.94 124.68 119.68 123.18"/><polygon class="cls-18" points="126.31 123.18 127.05 124.68 128.7 124.92 127.51 126.08 127.79 127.73 126.31 126.95 124.84 127.73 125.12 126.08 123.92 124.92 125.57 124.68 126.31 123.18"/><polygon class="cls-17" points="132.95 123.18 133.69 124.68 135.34 124.92 134.14 126.08 134.43 127.73 132.95 126.95 131.47 127.73 131.75 126.08 130.56 124.92 132.21 124.68 132.95 123.18"/><polygon class="cls-17" points="139.58 123.18 140.32 124.68 141.97 124.92 140.78 126.08 141.06 127.73 139.58 126.95 138.11 127.73 138.39 126.08 137.19 124.92 138.85 124.68 139.58 123.18"/><rect class="cls-17" x="110.65" y="130.51" width="31.32" height="8.04" rx="1.81"/><path class="cls-19" d="M141.16,84H109.64a.58.58,0,0,1,0-1.15h31.52a.58.58,0,1,1,0,1.15Z"/><path class="cls-19" d="M129.15,92.2H109.64a.57.57,0,0,1-.57-.57.58.58,0,0,1,.57-.58h19.51a.58.58,0,0,1,.57.58A.57.57,0,0,1,129.15,92.2Z"/><path class="cls-19" d="M123.48,88H109.64a.58.58,0,0,1,0-1.15h13.84a.58.58,0,0,1,0,1.15Z"/><path class="cls-20" d="M194,203.46c-.34-2-.73-4-1.2-6a11.65,11.65,0,0,0-1.73-4.42,3.56,3.56,0,0,0-3.59-1.62c-4.58,1.28-1.43,8.79-.49,11.46q1.69,4.78,3.06,9.67c.25.87.68,2.33,1.74,2.46.53.07,3-.09,3.27-.5a1.09,1.09,0,0,0,.08-.6A94.56,94.56,0,0,0,194,203.46Z"/><path class="cls-20" d="M169.32,203.39c.71-1.9,1.37-3.82,2-5.77a11.61,11.61,0,0,0,.72-4.69,3.57,3.57,0,0,0-2.29-3.2c-4.61-1.19-5.65,6.88-6.18,9.67q-.93,5-2.2,9.9c-.23.88-.59,2.35.26,3,.43.33,2.67,1.44,3.08,1.21A1,1,0,0,0,165,213,94.2,94.2,0,0,0,169.32,203.39Z"/><path class="cls-21" d="M270.62,218.66a31.21,31.21,0,0,0,9-1.48c.63-.23,1.37-.74,1.17-1.38-.14-.46-.7-.64-1.17-.74a114.73,114.73,0,0,0-21.06-2.52c-5.19-.14-10.39.07-15.58.21-7.15.19-14.29.21-21.44.18-5.34,0-10.69,0-16,.06a51.56,51.56,0,0,1-7.46-.09c-1.49-.21-2.83-.84-4.34-1-5.29-.44-10.84.11-16.15.17l-15.82.19c-7.52.08-15.18.2-22.33,2.52-3.41,1.12-2.88,3.63-.08,5.17,2.49,1.36,5.82,1.46,8.58,1.6,10.69.54,21.41.2,32.11-.14l43.95-1.4c6.67-.22,13.53-1.07,20.13-1,7.24.11,14.48.11,21.72-.18C267.44,218.83,269,218.75,270.62,218.66Z"/><path class="cls-20" d="M180.29,106.48c.8-.56,2-.83,2.7-1.4a4.26,4.26,0,0,0,1.37-3.16,12.67,12.67,0,0,0-.56-3.5l-.63-2.49a4.5,4.5,0,0,0-.79-1.65,6.4,6.4,0,0,0-1.1-1,6.25,6.25,0,0,0-1.66-1.13,5.71,5.71,0,0,0-2.23-.5c-2.2,1.84-3.24,9.28-3.41,11-.43,4.47-.84,8.78-2.85,12.6a23,23,0,0,1,2.9.47,15,15,0,0,1,3.74,1.85c.52.34,3.67,1.8,3.71.26a1.48,1.48,0,0,0-.25-.72,15.54,15.54,0,0,1-1.92-6,8.09,8.09,0,0,1,.33-3.94A1.94,1.94,0,0,1,180.29,106.48Z"/><path class="cls-22" d="M203.39,213.73a2,2,0,0,0-1-.36c-1.17-.22-2.36-.31-3.52-.58a6.42,6.42,0,0,1-3.16-1.56,6.11,6.11,0,0,1-.75-.93,8.51,8.51,0,0,1-1,.74,8.6,8.6,0,0,1-4.36,1.06c.16.75.33,1.49.55,2.21.33,1.07.17,3.52,1.85,3.25,2.42-.38,4.88-.36,7.29-.79C200.13,216.63,205.37,215.3,203.39,213.73Z"/><path class="cls-23" d="M169.4,144.67A6.54,6.54,0,0,1,171,142.5c2.21-2.08,4.17-4,7.3-4.5a5.69,5.69,0,0,1,3.91.55c1.27.83,1.83,2.62,2.48,4a93.79,93.79,0,0,1,4.11,9.82A120.39,120.39,0,0,1,194,173a178.32,178.32,0,0,1,2,18.17c0,.57.73,9,.45,9a63.17,63.17,0,0,1-14.8,4.83c1.76-10.69-.49-21.59-3-32.13-1.94-8.23-8.5-14.28-9.66-22.95A9.8,9.8,0,0,1,169.4,144.67Z"/><path class="cls-22" d="M170.84,220.08a6,6,0,0,0-1.88-2.61c-1.43-1.38-2.91-3-3-5a3.39,3.39,0,0,1,0-.45,7,7,0,0,1-5-2.07c-.27.57-.54,1.15-.77,1.73-.41,1-2,2.82-.57,3.66,2.77,1.56,7.58,5.67,10.79,5.29a.48.48,0,0,0,.37-.15A.52.52,0,0,0,170.84,220.08Z"/><path class="cls-22" d="M187,91.33c-.28-2.87-3.21-3.77-6-3.76a3.87,3.87,0,0,0-.14-4,3.29,3.29,0,0,0-4.31-.71,11.79,11.79,0,0,0-4.3-1.56,6.39,6.39,0,0,0-5.13,1.49,3.53,3.53,0,0,0-1.1,2.37c-1.73-1.36-4.17-2.26-5.91-.43a2.75,2.75,0,0,0-.7,1.39,5.44,5.44,0,0,0-4.84,5.09,3.31,3.31,0,0,0,.56,2.24,6.54,6.54,0,0,0-3,5.19,4.72,4.72,0,0,0,1.51,3.26,3.59,3.59,0,0,0-.28,3.71,4.68,4.68,0,0,0,2.82,2.23,5.56,5.56,0,0,0,.1,2.2c.4,1.5,1.87,2.63,3.14,3.38a4.7,4.7,0,0,0,5.81-.73c2.13,2.72,7.35,1,7.86-2.5,3.43.82,5.08-5.55,2.87-8.35a5,5,0,0,0,3.93-1.89,3.25,3.25,0,0,0,.7-3C183.72,96.71,187.34,94.82,187,91.33Z"/><path class="cls-24" d="M170.93,114.43c2.92-2.74,7.36-1,10.28,1.3a9.78,9.78,0,0,1,3.72,6.24,28.91,28.91,0,0,1,.09,6.51c-.18,2.8-.34,5.6-.53,8.39-.12,1.77.2,3.88-1.57,4.88a8.36,8.36,0,0,1-4.57.42,12.7,12.7,0,0,1-2.87-.64,10.72,10.72,0,0,1-3.36-2.36,4.9,4.9,0,0,1-1.86-3,6.56,6.56,0,0,1,.31-1.95c.71-3.22-.23-6.54-.94-9.75-.66-3-1.38-6.44.52-9.1A6.39,6.39,0,0,1,170.93,114.43Z"/><path class="cls-25" d="M163.71,203.08a106.5,106.5,0,0,0-9.71-4.63c.23.1,4.17-7.62,4.48-8.26a70.89,70.89,0,0,0,7.09-32.84c-.14-4.63-1.91-8.38-.45-13,.94-3,2.84-5.43,4.26-8.13.25-.48.49-1.44,1-1.74s1.25-.08,1.71-.07c1.7,0,3.4,0,5.09,0a74.47,74.47,0,0,0,7.47,0c.18,5.9-.55,11.74-.95,17.62-.62,9.09-1,18.51-3,27.53-2.1,9.57-6.75,18.26-10.57,27.2C168,205.48,165.87,204.24,163.71,203.08Z"/><path class="cls-26" d="M178.66,147.16c1.81,2.91,4.76,5.19,7.62,7.09a86.72,86.72,0,0,0,16,8.7c9.76,3.85,20.37,5,30.86,5.29s21-.38,31.48,0"/><path class="cls-20" d="M175.12,115.09c1.43.65,2,2.52,1.86,4a8.46,8.46,0,0,1-1.92,4.2c-.95,1.23-2.06,2.33-3,3.6a14.8,14.8,0,0,0-1.45,2.5,10.13,10.13,0,0,0-.95,4.63,7.11,7.11,0,0,0,1.87,4.14,36.6,36.6,0,0,0,7.57,7,11.69,11.69,0,0,1,2.38,2.11,3.66,3.66,0,0,1,.81,3A2.21,2.21,0,0,1,180,152a1.25,1.25,0,0,1-.71-.34,2.13,2.13,0,0,1-.37-.92,6.62,6.62,0,0,0-1.88-3.16c-.87-.81-2-1.06-3-1.75a56.93,56.93,0,0,1-6.94-5.75c-6.85-6.7,1-20.51,3.92-24.14a3.64,3.64,0,0,1,4-.89Z"/><path class="cls-22" d="M177.83,145.9c.46-.58,1.52-1.42,2.21-.73a.67.67,0,0,1,0,.91c-.21.3-.47.26-.76.4a2.47,2.47,0,0,0-.65.6,6.24,6.24,0,0,1-1.42,1.48.26.26,0,0,1-.4-.21A3.88,3.88,0,0,1,177.83,145.9Z"/><path class="cls-27" d="M273.43,150.53c-.28-.53-3.77-6.33-3.77-6.33s-1.9,3.31-1.05,5.54,1.53,3.56,1.53,3.56Z"/><path class="cls-22" d="M277.8,150c-.28-.54-3.78-6.33-3.78-6.33s-1.9,3.31-1,5.54,1.52,3.56,1.52,3.56Z"/><path class="cls-27" d="M235.5,176.74s-2.49-.46-3.4-2.06-1.93-4.14-1.93-4.14a14.82,14.82,0,0,0,.22,4.47,12.53,12.53,0,0,0,2.62,4Z"/><path class="cls-27" d="M250,186.61c.73.46-2.93,6.72-3.27,7.2-2.52,3.52-6.9,5-9,8.89a18.4,18.4,0,0,0-1.77,6.28,24.85,24.85,0,0,0-.3,4.63,3.41,3.41,0,0,0,.26,1.32c.54,1.12,1.73.53,2.25,1.11a1.19,1.19,0,0,1-.74,2.06l-3.37.17c-1.26.06-1.39-6.8-1.46-8a41,41,0,0,1,.73-10.25,40.58,40.58,0,0,1,7.5-16.65c1.07-1.4,1.1-1.62,2.58-.94a26.28,26.28,0,0,1,2.75,1.72Z"/><path class="cls-27" d="M277.34,161.22l0,18.43A26.2,26.2,0,0,1,274.68,191c-2.55,5-9,5.39-13.95,3.85-4.58-1.41-8.54-4.91-13.33-5.15-4-.21-7.73,1.88-11.7,1.94a27.91,27.91,0,0,1-7.94-1.67c2.37-3.94,2-10.06,5.48-13.28a11.83,11.83,0,0,1,5.32-2.39,80.58,80.58,0,0,1,12.14-2.05c2.8-.25,7.36.62,9.84-.77,2-1.12,3-3.76,3.82-5.9l4.4-11,1.45-2.46a5.13,5.13,0,0,1,3.58-2.46c2.09-.35,5.7.12,6.46,1.28a9.68,9.68,0,0,0,2.66,2.78l8.43.41a2.93,2.93,0,0,1-2,3.73c-3.17,1.07-8.31.51-8.31.51s1.38.49,7.61.16c.33,0,1,1.24-.83,1.45C282.6,160.53,277.34,161.22,277.34,161.22Z"/><path class="cls-27" d="M257.81,190.71c-.48,1.83-.27,4-.36,5.79q-.18,3.83-.33,7.65-.24,6.06-.46,12.13a.51.51,0,0,0,.54.52l3.85-.19a1.41,1.41,0,0,0,1.21-.66c.81-1.52-2-1.69-2.35-2.56-.68-1.59.58-5.28,1-6.9,1.09-4.66,2.77-9.23,3-14.06a7.05,7.05,0,0,0-.37-3,3,3,0,0,0-2.18-1.87,3.08,3.08,0,0,0-2.91,1.69A5.84,5.84,0,0,0,257.81,190.71Z"/><path class="cls-27" d="M267.38,190.61c.15,1.74.45,3.46.49,5.23.05,2.42-.22,4.89-.32,7.31q-.26,6.16-.47,12.31a1.1,1.1,0,0,0,1.15,1.14l3.23-.16a1.66,1.66,0,0,0,1.33-.88c.51-1.54-1.84-1.8-2.82-2-.15-5.61,1.94-12.1,3.68-17.4,1.18-3.57,2.56-7.62.72-10.9-1-1.75-3.25-3-5-2-1.42.78-1.88,2.58-2,4.19A17.06,17.06,0,0,0,267.38,190.61Z"/><path class="cls-27" d="M240.78,187.1c-.06.25-3.27,7.87-7.36,10.44a31.77,31.77,0,0,0-6.83,5.29c-1.12,1.3-.88,3.27-1,4.93q-.15,3.26,0,6.49a2.86,2.86,0,0,0,.62,2c.45.43,1.41.29,1.73.77a1.17,1.17,0,0,1-.92,1.7c-1.21.06-2.22.4-3.08-.52s-1-2.94-1.1-4.24c-.32-4.75-1.61-10.34.25-14.88a33.28,33.28,0,0,1,2.25-4.15,62.49,62.49,0,0,0,4.18-8.54c.35-.89.88-3.58,1.75-3.69.37-.05,1.32.62,1.66.78Z"/><path class="cls-28" d="M291.57,153.84a.71.71,0,1,0,.32.24"/><polygon class="cls-22" points="277.72 170.15 262.82 166.75 262.56 168.83 277.83 172.3 277.72 170.15"/><path class="cls-10" d="M183.78,101.83l-2.9.45a1.62,1.62,0,0,0,2.82.06,2,2,0,0,0,.19-.57Z"/></g></g></svg>